# xmcd
#
# Track frame offsets:
#	182
#	11482
#	24297
#	37415
#	51392
#	63030
#	74952
#	85085
#	97235
#	113037
#	125287
#	135830
#	149345
#	168537
#	180855
#	194950
#
# Disc length: 2811
#
# Revision: 1
# Processed by: cddbd v1.5.1PL0 Copyright (c) Steve Scherf et al.
# Submitted via: dBpowerAMP V4.0
# Normalized: r0:TDELIM( - )
#
DISCID=e70af910
DTITLE=Various Artist - Roots of Blues
DYEAR=1900
DGENRE=Blues
TTITLE0=John Lee Hooker - Boom boom boom
TTITLE1=Jimmy Reed - Shame shame shame
TTITLE2=Elmore James - Dust in my room
TTITLE3=Ray Charles - Baby let me hold your hand
TTITLE4=Little Richard - Need him
TTITLE5=Lightinin' Slim - Rooster Blues
TTITLE6=John lee Hooker - Dimples
TTITLE7=Jimmy reed - Honest I do
TTITLE8=Jay Hawkins - I put a spel on you
TTITLE9=Louis Jordan - Caldonia
TTITLE10=Fats Domino - Blueberry hill
TTITLE11=Ted Taylor - She's a winner
TTITLE12=Big Joe Turner - When the sun goes down
TTITLE13=Rod Stewart - Moppers blues
TTITLE14=Canned Heat - Rollin' and tumblin'
TTITLE15=Tony joe White - Polk Salad Annie
EXTD=
EXTT0=
EXTT1=
EXTT2=
EXTT3=
EXTT4=
EXTT5=
EXTT6=
EXTT7=
EXTT8=
EXTT9=
EXTT10=
EXTT11=
EXTT12=
EXTT13=
EXTT14=
EXTT15=
PLAYORDER=
